<svg width="196" height="140" viewBox="0 0 196 140" fill="none" xmlns="http://www.w3.org/2000/svg">
<rect width="196" height="140" fill="white"/>
<path d="M54.64 70V60.28H56L56.14 61.68H56.2C56.6667 61.2133 57.16 60.8267 57.68 60.52C58.2 60.2 58.7933 60.04 59.46 60.04C60.4867 60.04 61.2333 60.3667 61.7 61.02C62.18 61.66 62.42 62.6 62.42 63.84V70H60.78V64.06C60.78 63.1533 60.6333 62.4933 60.34 62.08C60.0467 61.6667 59.58 61.46 58.94 61.46C58.4467 61.46 58 61.5867 57.6 61.84C57.2133 62.0933 56.7733 62.4667 56.28 62.96V70H54.64ZM70.3175 70.24C69.4508 70.24 68.6642 70.04 67.9575 69.64C67.2508 69.2267 66.6908 68.64 66.2775 67.88C65.8642 67.12 65.6575 66.2133 65.6575 65.16C65.6575 64.0933 65.8642 63.18 66.2775 62.42C66.7042 61.66 67.2508 61.0733 67.9175 60.66C68.5842 60.2467 69.2842 60.04 70.0175 60.04C71.2575 60.04 72.2108 60.4533 72.8775 61.28C73.5575 62.1067 73.8975 63.2133 73.8975 64.6C73.8975 64.7733 73.8908 64.9467 73.8775 65.12C73.8775 65.28 73.8642 65.42 73.8375 65.54H67.2775C67.3442 66.5667 67.6642 67.3867 68.2375 68C68.8242 68.6133 69.5842 68.92 70.5175 68.92C70.9842 68.92 71.4108 68.8533 71.7975 68.72C72.1975 68.5733 72.5775 68.3867 72.9375 68.16L73.5175 69.24C73.1042 69.5067 72.6308 69.74 72.0975 69.94C71.5775 70.14 70.9842 70.24 70.3175 70.24ZM67.2575 64.36H72.4575C72.4575 63.3733 72.2442 62.6267 71.8175 62.12C71.4042 61.6 70.8175 61.34 70.0575 61.34C69.3775 61.34 68.7642 61.6067 68.2175 62.14C67.6842 62.66 67.3642 63.4 67.2575 64.36ZM79.9641 70.24C78.9241 70.24 78.1974 69.94 77.7841 69.34C77.3841 68.74 77.1841 67.96 77.1841 67V61.62H75.7441V60.38L77.2641 60.28L77.4641 57.56H78.8441V60.28H81.4641V61.62H78.8441V67.02C78.8441 67.62 78.9507 68.0867 79.1641 68.42C79.3907 68.74 79.7841 68.9 80.3441 68.9C80.5174 68.9 80.7041 68.8733 80.9041 68.82C81.1041 68.7533 81.2841 68.6933 81.4441 68.64L81.7641 69.88C81.4974 69.9733 81.2041 70.0533 80.8841 70.12C80.5774 70.2 80.2707 70.24 79.9641 70.24ZM83.4419 70V69.12L88.5619 61.62H84.0019V60.28H90.6419V61.16L85.5219 68.66H90.8019V70H83.4419ZM95.498 70.24C94.8846 70.24 94.438 70.0533 94.158 69.68C93.8913 69.2933 93.758 68.7467 93.758 68.04V55.76H95.398V68.16C95.398 68.4133 95.4446 68.6 95.538 68.72C95.6313 68.8267 95.738 68.88 95.858 68.88C95.9113 68.88 95.958 68.88 95.998 68.88C96.0513 68.8667 96.1246 68.8533 96.218 68.84L96.438 70.08C96.3313 70.1333 96.2046 70.1733 96.058 70.2C95.9113 70.2267 95.7246 70.24 95.498 70.24Z" fill="#47484B"/>
<path d="M100.48 62.12C99.8733 62.12 99.3867 61.9 99.02 61.46C98.6533 61.0133 98.47 60.3867 98.47 59.58C98.47 59.0533 98.5667 58.6 98.76 58.22C98.96 57.8333 99.22 57.5367 99.54 57.33C99.8667 57.1233 100.213 57.02 100.58 57.02C100.86 57.02 101.103 57.07 101.31 57.17C101.517 57.27 101.727 57.4067 101.94 57.58L101.9 56.75V54.88H102.73V62H102.05L101.98 61.43H101.95C101.763 61.6167 101.543 61.78 101.29 61.92C101.037 62.0533 100.767 62.12 100.48 62.12ZM100.66 61.43C101.087 61.43 101.5 61.2067 101.9 60.76V58.22C101.693 58.0333 101.493 57.9033 101.3 57.83C101.113 57.75 100.92 57.71 100.72 57.71C100.46 57.71 100.223 57.79 100.01 57.95C99.8033 58.1033 99.6367 58.32 99.51 58.6C99.3833 58.8733 99.32 59.1967 99.32 59.57C99.32 60.15 99.4367 60.6067 99.67 60.94C99.9033 61.2667 100.233 61.43 100.66 61.43ZM105.987 62.12C105.58 62.12 105.24 62 104.967 61.76C104.7 61.5133 104.567 61.1733 104.567 60.74C104.567 60.2067 104.804 59.8 105.277 59.52C105.757 59.2333 106.514 59.0333 107.547 58.92C107.547 58.7133 107.517 58.5167 107.457 58.33C107.404 58.1433 107.304 57.9933 107.157 57.88C107.017 57.76 106.814 57.7 106.547 57.7C106.267 57.7 106.004 57.7533 105.757 57.86C105.51 57.9667 105.29 58.0867 105.097 58.22L104.777 57.65C105.004 57.5033 105.28 57.3633 105.607 57.23C105.94 57.09 106.3 57.02 106.687 57.02C107.28 57.02 107.71 57.2033 107.977 57.57C108.244 57.93 108.377 58.4133 108.377 59.02V62H107.697L107.627 61.42H107.597C107.37 61.6067 107.12 61.77 106.847 61.91C106.58 62.05 106.294 62.12 105.987 62.12ZM106.227 61.46C106.46 61.46 106.68 61.4033 106.887 61.29C107.094 61.1767 107.314 61.0167 107.547 60.81V59.46C106.74 59.56 106.174 59.71 105.847 59.91C105.527 60.11 105.367 60.3667 105.367 60.68C105.367 60.9533 105.45 61.1533 105.617 61.28C105.784 61.4 105.987 61.46 106.227 61.46ZM111.799 62.12C111.279 62.12 110.916 61.97 110.709 61.67C110.509 61.37 110.409 60.98 110.409 60.5V57.81H109.689V57.19L110.449 57.14L110.549 55.78H111.239V57.14H112.549V57.81H111.239V60.51C111.239 60.81 111.293 61.0433 111.399 61.21C111.513 61.37 111.709 61.45 111.989 61.45C112.076 61.45 112.169 61.4367 112.269 61.41C112.369 61.3767 112.459 61.3467 112.539 61.32L112.699 61.94C112.566 61.9867 112.419 62.0267 112.259 62.06C112.106 62.1 111.953 62.12 111.799 62.12ZM115.053 62.12C114.647 62.12 114.307 62 114.033 61.76C113.767 61.5133 113.633 61.1733 113.633 60.74C113.633 60.2067 113.87 59.8 114.343 59.52C114.823 59.2333 115.58 59.0333 116.613 58.92C116.613 58.7133 116.583 58.5167 116.523 58.33C116.47 58.1433 116.37 57.9933 116.223 57.88C116.083 57.76 115.88 57.7 115.613 57.7C115.333 57.7 115.07 57.7533 114.823 57.86C114.577 57.9667 114.357 58.0867 114.163 58.22L113.843 57.65C114.07 57.5033 114.347 57.3633 114.673 57.23C115.007 57.09 115.367 57.02 115.753 57.02C116.347 57.02 116.777 57.2033 117.043 57.57C117.31 57.93 117.443 58.4133 117.443 59.02V62H116.763L116.693 61.42H116.663C116.437 61.6067 116.187 61.77 115.913 61.91C115.647 62.05 115.36 62.12 115.053 62.12ZM115.293 61.46C115.527 61.46 115.747 61.4033 115.953 61.29C116.16 61.1767 116.38 61.0167 116.613 60.81V59.46C115.807 59.56 115.24 59.71 114.913 59.91C114.593 60.11 114.433 60.3667 114.433 60.68C114.433 60.9533 114.517 61.1533 114.683 61.28C114.85 61.4 115.053 61.46 115.293 61.46ZM100.09 70.12C99.7433 70.12 99.4133 70.0567 99.1 69.93C98.7867 69.7967 98.5133 69.6367 98.28 69.45L98.69 68.9C98.9033 69.0667 99.1233 69.2067 99.35 69.32C99.5767 69.4267 99.8333 69.48 100.12 69.48C100.44 69.48 100.68 69.4067 100.84 69.26C101 69.1067 101.08 68.9267 101.08 68.72C101.08 68.5533 101.023 68.4133 100.91 68.3C100.803 68.1867 100.663 68.0933 100.49 68.02C100.323 67.94 100.15 67.8667 99.97 67.8C99.7433 67.7133 99.52 67.6167 99.3 67.51C99.08 67.3967 98.9 67.2533 98.76 67.08C98.62 66.9 98.55 66.6733 98.55 66.4C98.55 66.0067 98.6967 65.68 98.99 65.42C99.29 65.1533 99.7033 65.02 100.23 65.02C100.53 65.02 100.81 65.0733 101.07 65.18C101.33 65.2867 101.553 65.4167 101.74 65.57L101.34 66.09C101.173 65.9633 101 65.86 100.82 65.78C100.64 65.7 100.443 65.66 100.23 65.66C99.9233 65.66 99.6967 65.73 99.55 65.87C99.41 66.01 99.34 66.1733 99.34 66.36C99.34 66.5133 99.39 66.64 99.49 66.74C99.59 66.8333 99.72 66.9167 99.88 66.99C100.04 67.0567 100.21 67.1267 100.39 67.2C100.623 67.2867 100.853 67.3867 101.08 67.5C101.307 67.6067 101.493 67.7533 101.64 67.94C101.793 68.12 101.87 68.3633 101.87 68.67C101.87 68.93 101.8 69.17 101.66 69.39C101.527 69.61 101.327 69.7867 101.06 69.92C100.8 70.0533 100.477 70.12 100.09 70.12ZM105.399 70.12C105.006 70.12 104.636 70.02 104.289 69.82C103.949 69.62 103.673 69.33 103.459 68.95C103.253 68.57 103.149 68.1133 103.149 67.58C103.149 67.0333 103.253 66.57 103.459 66.19C103.673 65.81 103.949 65.52 104.289 65.32C104.636 65.12 105.006 65.02 105.399 65.02C105.799 65.02 106.169 65.12 106.509 65.32C106.849 65.52 107.123 65.81 107.329 66.19C107.543 66.57 107.649 67.0333 107.649 67.58C107.649 68.1133 107.543 68.57 107.329 68.95C107.123 69.33 106.849 69.62 106.509 69.82C106.169 70.02 105.799 70.12 105.399 70.12ZM105.399 69.44C105.819 69.44 106.156 69.27 106.409 68.93C106.669 68.5833 106.799 68.1333 106.799 67.58C106.799 67.02 106.669 66.5667 106.409 66.22C106.156 65.8733 105.819 65.7 105.399 65.7C104.986 65.7 104.649 65.8733 104.389 66.22C104.129 66.5667 103.999 67.02 103.999 67.58C103.999 68.1333 104.129 68.5833 104.389 68.93C104.649 69.27 104.986 69.44 105.399 69.44ZM110.299 70.12C109.993 70.12 109.769 70.0267 109.629 69.84C109.496 69.6467 109.429 69.3733 109.429 69.02V62.88H110.249V69.08C110.249 69.2067 110.273 69.3 110.319 69.36C110.366 69.4133 110.419 69.44 110.479 69.44C110.506 69.44 110.529 69.44 110.549 69.44C110.576 69.4333 110.613 69.4267 110.659 69.42L110.769 70.04C110.716 70.0667 110.653 70.0867 110.579 70.1C110.506 70.1133 110.413 70.12 110.299 70.12ZM113.898 70.12C113.385 70.12 113.008 69.96 112.768 69.64C112.528 69.3133 112.408 68.84 112.408 68.22V65.14H113.238V68.11C113.238 68.5633 113.308 68.8933 113.448 69.1C113.595 69.3067 113.828 69.41 114.148 69.41C114.402 69.41 114.625 69.3467 114.818 69.22C115.018 69.0867 115.232 68.8767 115.458 68.59V65.14H116.278V70H115.598L115.528 69.24H115.498C115.272 69.5067 115.032 69.72 114.778 69.88C114.525 70.04 114.232 70.12 113.898 70.12ZM119.948 70.12C119.428 70.12 119.064 69.97 118.858 69.67C118.658 69.37 118.558 68.98 118.558 68.5V65.81H117.838V65.19L118.598 65.14L118.698 63.78H119.388V65.14H120.698V65.81H119.388V68.51C119.388 68.81 119.441 69.0433 119.548 69.21C119.661 69.37 119.858 69.45 120.138 69.45C120.224 69.45 120.318 69.4367 120.418 69.41C120.518 69.3767 120.608 69.3467 120.688 69.32L120.848 69.94C120.714 69.9867 120.568 70.0267 120.408 70.06C120.254 70.1 120.101 70.12 119.948 70.12ZM122.297 70V65.14H123.117V70H122.297ZM122.717 64.14C122.557 64.14 122.423 64.0933 122.317 64C122.217 63.9 122.167 63.7667 122.167 63.6C122.167 63.44 122.217 63.31 122.317 63.21C122.423 63.11 122.557 63.06 122.717 63.06C122.877 63.06 123.007 63.11 123.107 63.21C123.213 63.31 123.267 63.44 123.267 63.6C123.267 63.7667 123.213 63.9 123.107 64C123.007 64.0933 122.877 64.14 122.717 64.14ZM127.148 70.12C126.754 70.12 126.384 70.02 126.038 69.82C125.698 69.62 125.421 69.33 125.208 68.95C125.001 68.57 124.898 68.1133 124.898 67.58C124.898 67.0333 125.001 66.57 125.208 66.19C125.421 65.81 125.698 65.52 126.038 65.32C126.384 65.12 126.754 65.02 127.148 65.02C127.548 65.02 127.918 65.12 128.258 65.32C128.598 65.52 128.871 65.81 129.078 66.19C129.291 66.57 129.398 67.0333 129.398 67.58C129.398 68.1133 129.291 68.57 129.078 68.95C128.871 69.33 128.598 69.62 128.258 69.82C127.918 70.02 127.548 70.12 127.148 70.12ZM127.148 69.44C127.568 69.44 127.904 69.27 128.158 68.93C128.418 68.5833 128.548 68.1333 128.548 67.58C128.548 67.02 128.418 66.5667 128.158 66.22C127.904 65.8733 127.568 65.7 127.148 65.7C126.734 65.7 126.398 65.8733 126.138 66.22C125.878 66.5667 125.748 67.02 125.748 67.58C125.748 68.1333 125.878 68.5833 126.138 68.93C126.398 69.27 126.734 69.44 127.148 69.44ZM131.177 70V65.14H131.857L131.927 65.84H131.957C132.191 65.6067 132.437 65.4133 132.697 65.26C132.957 65.1 133.254 65.02 133.587 65.02C134.101 65.02 134.474 65.1833 134.707 65.51C134.947 65.83 135.067 66.3 135.067 66.92V70H134.247V67.03C134.247 66.5767 134.174 66.2467 134.027 66.04C133.881 65.8333 133.647 65.73 133.327 65.73C133.081 65.73 132.857 65.7933 132.657 65.92C132.464 66.0467 132.244 66.2333 131.997 66.48V70H131.177ZM138.416 70.12C138.07 70.12 137.74 70.0567 137.426 69.93C137.113 69.7967 136.84 69.6367 136.606 69.45L137.016 68.9C137.23 69.0667 137.45 69.2067 137.676 69.32C137.903 69.4267 138.16 69.48 138.446 69.48C138.766 69.48 139.006 69.4067 139.166 69.26C139.326 69.1067 139.406 68.9267 139.406 68.72C139.406 68.5533 139.35 68.4133 139.236 68.3C139.13 68.1867 138.99 68.0933 138.816 68.02C138.65 67.94 138.476 67.8667 138.296 67.8C138.07 67.7133 137.846 67.6167 137.626 67.51C137.406 67.3967 137.226 67.2533 137.086 67.08C136.946 66.9 136.876 66.6733 136.876 66.4C136.876 66.0067 137.023 65.68 137.316 65.42C137.616 65.1533 138.03 65.02 138.556 65.02C138.856 65.02 139.136 65.0733 139.396 65.18C139.656 65.2867 139.88 65.4167 140.066 65.57L139.666 66.09C139.5 65.9633 139.326 65.86 139.146 65.78C138.966 65.7 138.77 65.66 138.556 65.66C138.25 65.66 138.023 65.73 137.876 65.87C137.736 66.01 137.666 66.1733 137.666 66.36C137.666 66.5133 137.716 66.64 137.816 66.74C137.916 66.8333 138.046 66.9167 138.206 66.99C138.366 67.0567 138.536 67.1267 138.716 67.2C138.95 67.2867 139.18 67.3867 139.406 67.5C139.633 67.6067 139.82 67.7533 139.966 67.94C140.12 68.12 140.196 68.3633 140.196 68.67C140.196 68.93 140.126 69.17 139.986 69.39C139.853 69.61 139.653 69.7867 139.386 69.92C139.126 70.0533 138.803 70.12 138.416 70.12Z" fill="#74B047"/>
<line x1="60" y1="74.5" x2="87.1" y2="74.5" stroke="url(#paint0_linear_15_32)"/>
<path d="M65 77.5L90 77.5" stroke="url(#paint1_linear_15_32)"/>
<rect x="61.95" y="76" width="3" height="3" rx="0.5" fill="#70B646"/>
<path d="M90.5 76.5C91.0523 76.5 91.5 76.9477 91.5 77.5C91.5 78.0523 91.0523 78.5 90.5 78.5C89.9477 78.5 89.5 78.0523 89.5 77.5C89.5 76.9477 89.9477 76.5 90.5 76.5Z" stroke="#4F973A"/>
<path d="M69 80.5H72.3511H81.9561C82.925 80.5 83.8342 80.0321 84.3973 79.2437L86 77L87.7171 73.9092C88.2003 73.0394 89.1171 72.5 90.112 72.5H95" stroke="url(#paint2_linear_15_32)"/>
<path d="M65.95 79.5C65.95 79.2239 66.1738 79 66.45 79H68.45C68.7261 79 68.95 79.2239 68.95 79.5V81.5C68.95 81.7761 68.7261 82 68.45 82H66.45C66.1738 82 65.95 81.7761 65.95 81.5V79.5Z" fill="#70B646"/>
<path d="M95.05 71.5C95.05 71.2239 95.2739 71 95.55 71H97.55C97.8262 71 98.05 71.2239 98.05 71.5V73.5C98.05 73.7761 97.8262 74 97.55 74H95.55C95.2739 74 95.05 73.7761 95.05 73.5V71.5Z" fill="#70B646"/>
<rect x="56.95" y="73" width="3" height="3" rx="0.5" fill="#72B541"/>
<defs>
<linearGradient id="paint0_linear_15_32" x1="60" y1="75.5" x2="87.1" y2="75.5" gradientUnits="userSpaceOnUse">
<stop stop-color="#72B541"/>
<stop offset="1" stop-color="#77B449"/>
</linearGradient>
<linearGradient id="paint1_linear_15_32" x1="62.4138" y1="78.5" x2="90" y2="78.5" gradientUnits="userSpaceOnUse">
<stop stop-color="#70B646"/>
<stop offset="1" stop-color="#4F973A"/>
</linearGradient>
<linearGradient id="paint2_linear_15_32" x1="80.7288" y1="73.1667" x2="80.7288" y2="83.8333" gradientUnits="userSpaceOnUse">
<stop stop-color="#4F973A"/>
<stop offset="1" stop-color="#70B646"/>
</linearGradient>
</defs>
</svg>
