<svg width="89" height="32" viewBox="0 0 89 32" fill="none" xmlns="http://www.w3.org/2000/svg">
<path d="M1.64 20V10.28H3L3.14 11.68H3.2C3.66667 11.2133 4.16 10.8267 4.68 10.52C5.2 10.2 5.79333 10.04 6.46 10.04C7.48667 10.04 8.23333 10.3667 8.7 11.02C9.18 11.66 9.42 12.6 9.42 13.84V20H7.78V14.06C7.78 13.1533 7.63333 12.4933 7.34 12.08C7.04667 11.6667 6.58 11.46 5.94 11.46C5.44667 11.46 5 11.5867 4.6 11.84C4.21333 12.0933 3.77333 12.4667 3.28 12.96V20H1.64ZM17.3175 20.24C16.4508 20.24 15.6642 20.04 14.9575 19.64C14.2508 19.2267 13.6908 18.64 13.2775 17.88C12.8642 17.12 12.6575 16.2133 12.6575 15.16C12.6575 14.0933 12.8642 13.18 13.2775 12.42C13.7042 11.66 14.2508 11.0733 14.9175 10.66C15.5842 10.2467 16.2842 10.04 17.0175 10.04C18.2575 10.04 19.2108 10.4533 19.8775 11.28C20.5575 12.1067 20.8975 13.2133 20.8975 14.6C20.8975 14.7733 20.8908 14.9467 20.8775 15.12C20.8775 15.28 20.8642 15.42 20.8375 15.54H14.2775C14.3442 16.5667 14.6642 17.3867 15.2375 18C15.8242 18.6133 16.5842 18.92 17.5175 18.92C17.9842 18.92 18.4108 18.8533 18.7975 18.72C19.1975 18.5733 19.5775 18.3867 19.9375 18.16L20.5175 19.24C20.1042 19.5067 19.6308 19.74 19.0975 19.94C18.5775 20.14 17.9842 20.24 17.3175 20.24ZM14.2575 14.36H19.4575C19.4575 13.3733 19.2442 12.6267 18.8175 12.12C18.4042 11.6 17.8175 11.34 17.0575 11.34C16.3775 11.34 15.7642 11.6067 15.2175 12.14C14.6842 12.66 14.3642 13.4 14.2575 14.36ZM26.9641 20.24C25.9241 20.24 25.1974 19.94 24.7841 19.34C24.3841 18.74 24.1841 17.96 24.1841 17V11.62H22.7441V10.38L24.2641 10.28L24.4641 7.56H25.8441V10.28H28.4641V11.62H25.8441V17.02C25.8441 17.62 25.9507 18.0867 26.1641 18.42C26.3907 18.74 26.7841 18.9 27.3441 18.9C27.5174 18.9 27.7041 18.8733 27.9041 18.82C28.1041 18.7533 28.2841 18.6933 28.4441 18.64L28.7641 19.88C28.4974 19.9733 28.2041 20.0533 27.8841 20.12C27.5774 20.2 27.2707 20.24 26.9641 20.24ZM30.4419 20V19.12L35.5619 11.62H31.0019V10.28H37.6419V11.16L32.5219 18.66H37.8019V20H30.4419ZM42.498 20.24C41.8846 20.24 41.438 20.0533 41.158 19.68C40.8913 19.2933 40.758 18.7467 40.758 18.04V5.76H42.398V18.16C42.398 18.4133 42.4446 18.6 42.538 18.72C42.6313 18.8267 42.738 18.88 42.858 18.88C42.9113 18.88 42.958 18.88 42.998 18.88C43.0513 18.8667 43.1246 18.8533 43.218 18.84L43.438 20.08C43.3313 20.1333 43.2046 20.1733 43.058 20.2C42.9113 20.2267 42.7246 20.24 42.498 20.24Z" fill="#47484B"/>
<path d="M47.48 12.12C46.8733 12.12 46.3867 11.9 46.02 11.46C45.6533 11.0133 45.47 10.3867 45.47 9.58C45.47 9.05333 45.5667 8.6 45.76 8.22C45.96 7.83333 46.22 7.53667 46.54 7.33C46.8667 7.12333 47.2133 7.02 47.58 7.02C47.86 7.02 48.1033 7.07 48.31 7.17C48.5167 7.27 48.7267 7.40667 48.94 7.58L48.9 6.75V4.88H49.73V12H49.05L48.98 11.43H48.95C48.7633 11.6167 48.5433 11.78 48.29 11.92C48.0367 12.0533 47.7667 12.12 47.48 12.12ZM47.66 11.43C48.0867 11.43 48.5 11.2067 48.9 10.76V8.22C48.6933 8.03333 48.4933 7.90333 48.3 7.83C48.1133 7.75 47.92 7.71 47.72 7.71C47.46 7.71 47.2233 7.79 47.01 7.95C46.8033 8.10333 46.6367 8.32 46.51 8.6C46.3833 8.87333 46.32 9.19667 46.32 9.57C46.32 10.15 46.4367 10.6067 46.67 10.94C46.9033 11.2667 47.2333 11.43 47.66 11.43ZM52.9869 12.12C52.5802 12.12 52.2402 12 51.9669 11.76C51.7002 11.5133 51.5669 11.1733 51.5669 10.74C51.5669 10.2067 51.8035 9.8 52.2769 9.52C52.7569 9.23333 53.5135 9.03333 54.5469 8.92C54.5469 8.71333 54.5169 8.51667 54.4569 8.33C54.4035 8.14333 54.3035 7.99333 54.1569 7.88C54.0169 7.76 53.8135 7.7 53.5469 7.7C53.2669 7.7 53.0035 7.75333 52.7569 7.86C52.5102 7.96667 52.2902 8.08667 52.0969 8.22L51.7769 7.65C52.0035 7.50333 52.2802 7.36333 52.6069 7.23C52.9402 7.09 53.3002 7.02 53.6869 7.02C54.2802 7.02 54.7102 7.20333 54.9769 7.57C55.2435 7.93 55.3769 8.41333 55.3769 9.02V12H54.6969L54.6269 11.42H54.5969C54.3702 11.6067 54.1202 11.77 53.8469 11.91C53.5802 12.05 53.2935 12.12 52.9869 12.12ZM53.2269 11.46C53.4602 11.46 53.6802 11.4033 53.8869 11.29C54.0935 11.1767 54.3135 11.0167 54.5469 10.81V9.46C53.7402 9.56 53.1735 9.71 52.8469 9.91C52.5269 10.11 52.3669 10.3667 52.3669 10.68C52.3669 10.9533 52.4502 11.1533 52.6169 11.28C52.7835 11.4 52.9869 11.46 53.2269 11.46ZM58.7992 12.12C58.2792 12.12 57.9159 11.97 57.7092 11.67C57.5092 11.37 57.4092 10.98 57.4092 10.5V7.81H56.6892V7.19L57.4492 7.14L57.5492 5.78H58.2392V7.14H59.5492V7.81H58.2392V10.51C58.2392 10.81 58.2926 11.0433 58.3992 11.21C58.5126 11.37 58.7092 11.45 58.9892 11.45C59.0759 11.45 59.1692 11.4367 59.2692 11.41C59.3692 11.3767 59.4592 11.3467 59.5392 11.32L59.6992 11.94C59.5659 11.9867 59.4192 12.0267 59.2592 12.06C59.1059 12.1 58.9526 12.12 58.7992 12.12ZM62.0533 12.12C61.6466 12.12 61.3066 12 61.0333 11.76C60.7666 11.5133 60.6333 11.1733 60.6333 10.74C60.6333 10.2067 60.8699 9.8 61.3433 9.52C61.8233 9.23333 62.5799 9.03333 63.6133 8.92C63.6133 8.71333 63.5833 8.51667 63.5233 8.33C63.4699 8.14333 63.3699 7.99333 63.2233 7.88C63.0833 7.76 62.8799 7.7 62.6133 7.7C62.3333 7.7 62.0699 7.75333 61.8233 7.86C61.5766 7.96667 61.3566 8.08667 61.1633 8.22L60.8433 7.65C61.0699 7.50333 61.3466 7.36333 61.6733 7.23C62.0066 7.09 62.3666 7.02 62.7533 7.02C63.3466 7.02 63.7766 7.20333 64.0433 7.57C64.3099 7.93 64.4433 8.41333 64.4433 9.02V12H63.7633L63.6933 11.42H63.6633C63.4366 11.6067 63.1866 11.77 62.9133 11.91C62.6466 12.05 62.3599 12.12 62.0533 12.12ZM62.2933 11.46C62.5266 11.46 62.7466 11.4033 62.9533 11.29C63.1599 11.1767 63.3799 11.0167 63.6133 10.81V9.46C62.8066 9.56 62.2399 9.71 61.9133 9.91C61.5933 10.11 61.4333 10.3667 61.4333 10.68C61.4333 10.9533 61.5166 11.1533 61.6833 11.28C61.8499 11.4 62.0533 11.46 62.2933 11.46ZM47.09 20.12C46.7433 20.12 46.4133 20.0567 46.1 19.93C45.7867 19.7967 45.5133 19.6367 45.28 19.45L45.69 18.9C45.9033 19.0667 46.1233 19.2067 46.35 19.32C46.5767 19.4267 46.8333 19.48 47.12 19.48C47.44 19.48 47.68 19.4067 47.84 19.26C48 19.1067 48.08 18.9267 48.08 18.72C48.08 18.5533 48.0233 18.4133 47.91 18.3C47.8033 18.1867 47.6633 18.0933 47.49 18.02C47.3233 17.94 47.15 17.8667 46.97 17.8C46.7433 17.7133 46.52 17.6167 46.3 17.51C46.08 17.3967 45.9 17.2533 45.76 17.08C45.62 16.9 45.55 16.6733 45.55 16.4C45.55 16.0067 45.6967 15.68 45.99 15.42C46.29 15.1533 46.7033 15.02 47.23 15.02C47.53 15.02 47.81 15.0733 48.07 15.18C48.33 15.2867 48.5533 15.4167 48.74 15.57L48.34 16.09C48.1733 15.9633 48 15.86 47.82 15.78C47.64 15.7 47.4433 15.66 47.23 15.66C46.9233 15.66 46.6967 15.73 46.55 15.87C46.41 16.01 46.34 16.1733 46.34 16.36C46.34 16.5133 46.39 16.64 46.49 16.74C46.59 16.8333 46.72 16.9167 46.88 16.99C47.04 17.0567 47.21 17.1267 47.39 17.2C47.6233 17.2867 47.8533 17.3867 48.08 17.5C48.3067 17.6067 48.4933 17.7533 48.64 17.94C48.7933 18.12 48.87 18.3633 48.87 18.67C48.87 18.93 48.8 19.17 48.66 19.39C48.5267 19.61 48.3267 19.7867 48.06 19.92C47.8 20.0533 47.4767 20.12 47.09 20.12ZM52.3995 20.12C52.0061 20.12 51.6361 20.02 51.2895 19.82C50.9495 19.62 50.6728 19.33 50.4595 18.95C50.2528 18.57 50.1495 18.1133 50.1495 17.58C50.1495 17.0333 50.2528 16.57 50.4595 16.19C50.6728 15.81 50.9495 15.52 51.2895 15.32C51.6361 15.12 52.0061 15.02 52.3995 15.02C52.7995 15.02 53.1695 15.12 53.5095 15.32C53.8495 15.52 54.1228 15.81 54.3295 16.19C54.5428 16.57 54.6495 17.0333 54.6495 17.58C54.6495 18.1133 54.5428 18.57 54.3295 18.95C54.1228 19.33 53.8495 19.62 53.5095 19.82C53.1695 20.02 52.7995 20.12 52.3995 20.12ZM52.3995 19.44C52.8195 19.44 53.1561 19.27 53.4095 18.93C53.6695 18.5833 53.7995 18.1333 53.7995 17.58C53.7995 17.02 53.6695 16.5667 53.4095 16.22C53.1561 15.8733 52.8195 15.7 52.3995 15.7C51.9861 15.7 51.6495 15.8733 51.3895 16.22C51.1295 16.5667 50.9995 17.02 50.9995 17.58C50.9995 18.1333 51.1295 18.5833 51.3895 18.93C51.6495 19.27 51.9861 19.44 52.3995 19.44ZM57.2994 20.12C56.9927 20.12 56.7694 20.0267 56.6294 19.84C56.496 19.6467 56.4294 19.3733 56.4294 19.02V12.88H57.2494V19.08C57.2494 19.2067 57.2727 19.3 57.3194 19.36C57.366 19.4133 57.4194 19.44 57.4794 19.44C57.506 19.44 57.5294 19.44 57.5494 19.44C57.576 19.4333 57.6127 19.4267 57.6594 19.42L57.7694 20.04C57.716 20.0667 57.6527 20.0867 57.5794 20.1C57.506 20.1133 57.4127 20.12 57.2994 20.12ZM60.8982 20.12C60.3849 20.12 60.0082 19.96 59.7682 19.64C59.5282 19.3133 59.4082 18.84 59.4082 18.22V15.14H60.2382V18.11C60.2382 18.5633 60.3082 18.8933 60.4482 19.1C60.5949 19.3067 60.8282 19.41 61.1482 19.41C61.4015 19.41 61.6249 19.3467 61.8182 19.22C62.0182 19.0867 62.2315 18.8767 62.4582 18.59V15.14H63.2782V20H62.5982L62.5282 19.24H62.4982C62.2715 19.5067 62.0315 19.72 61.7782 19.88C61.5249 20.04 61.2315 20.12 60.8982 20.12ZM66.9477 20.12C66.4277 20.12 66.0643 19.97 65.8577 19.67C65.6577 19.37 65.5577 18.98 65.5577 18.5V15.81H64.8377V15.19L65.5977 15.14L65.6977 13.78H66.3877V15.14H67.6977V15.81H66.3877V18.51C66.3877 18.81 66.441 19.0433 66.5477 19.21C66.661 19.37 66.8577 19.45 67.1377 19.45C67.2243 19.45 67.3177 19.4367 67.4177 19.41C67.5177 19.3767 67.6077 19.3467 67.6877 19.32L67.8477 19.94C67.7143 19.9867 67.5677 20.0267 67.4077 20.06C67.2543 20.1 67.101 20.12 66.9477 20.12ZM69.2966 20V15.14H70.1166V20H69.2966ZM69.7166 14.14C69.5566 14.14 69.4232 14.0933 69.3166 14C69.2166 13.9 69.1666 13.7667 69.1666 13.6C69.1666 13.44 69.2166 13.31 69.3166 13.21C69.4232 13.11 69.5566 13.06 69.7166 13.06C69.8766 13.06 70.0066 13.11 70.1066 13.21C70.2132 13.31 70.2666 13.44 70.2666 13.6C70.2666 13.7667 70.2132 13.9 70.1066 14C70.0066 14.0933 69.8766 14.14 69.7166 14.14ZM74.1475 20.12C73.7542 20.12 73.3842 20.02 73.0375 19.82C72.6975 19.62 72.4208 19.33 72.2075 18.95C72.0008 18.57 71.8975 18.1133 71.8975 17.58C71.8975 17.0333 72.0008 16.57 72.2075 16.19C72.4208 15.81 72.6975 15.52 73.0375 15.32C73.3842 15.12 73.7542 15.02 74.1475 15.02C74.5475 15.02 74.9175 15.12 75.2575 15.32C75.5975 15.52 75.8708 15.81 76.0775 16.19C76.2908 16.57 76.3975 17.0333 76.3975 17.58C76.3975 18.1133 76.2908 18.57 76.0775 18.95C75.8708 19.33 75.5975 19.62 75.2575 19.82C74.9175 20.02 74.5475 20.12 74.1475 20.12ZM74.1475 19.44C74.5675 19.44 74.9042 19.27 75.1575 18.93C75.4175 18.5833 75.5475 18.1333 75.5475 17.58C75.5475 17.02 75.4175 16.5667 75.1575 16.22C74.9042 15.8733 74.5675 15.7 74.1475 15.7C73.7342 15.7 73.3975 15.8733 73.1375 16.22C72.8775 16.5667 72.7475 17.02 72.7475 17.58C72.7475 18.1333 72.8775 18.5833 73.1375 18.93C73.3975 19.27 73.7342 19.44 74.1475 19.44ZM78.1774 20V15.14H78.8574L78.9274 15.84H78.9574C79.1908 15.6067 79.4374 15.4133 79.6974 15.26C79.9574 15.1 80.2541 15.02 80.5874 15.02C81.1008 15.02 81.4741 15.1833 81.7074 15.51C81.9474 15.83 82.0674 16.3 82.0674 16.92V20H81.2474V17.03C81.2474 16.5767 81.1741 16.2467 81.0274 16.04C80.8808 15.8333 80.6474 15.73 80.3274 15.73C80.0808 15.73 79.8574 15.7933 79.6574 15.92C79.4641 16.0467 79.2441 16.2333 78.9974 16.48V20H78.1774ZM85.4162 20.12C85.0695 20.12 84.7395 20.0567 84.4262 19.93C84.1128 19.7967 83.8395 19.6367 83.6062 19.45L84.0162 18.9C84.2295 19.0667 84.4495 19.2067 84.6762 19.32C84.9028 19.4267 85.1595 19.48 85.4462 19.48C85.7662 19.48 86.0062 19.4067 86.1662 19.26C86.3262 19.1067 86.4062 18.9267 86.4062 18.72C86.4062 18.5533 86.3495 18.4133 86.2362 18.3C86.1295 18.1867 85.9895 18.0933 85.8162 18.02C85.6495 17.94 85.4762 17.8667 85.2962 17.8C85.0695 17.7133 84.8462 17.6167 84.6262 17.51C84.4062 17.3967 84.2262 17.2533 84.0862 17.08C83.9462 16.9 83.8762 16.6733 83.8762 16.4C83.8762 16.0067 84.0228 15.68 84.3162 15.42C84.6162 15.1533 85.0295 15.02 85.5562 15.02C85.8562 15.02 86.1362 15.0733 86.3962 15.18C86.6562 15.2867 86.8795 15.4167 87.0662 15.57L86.6662 16.09C86.4995 15.9633 86.3262 15.86 86.1462 15.78C85.9662 15.7 85.7695 15.66 85.5562 15.66C85.2495 15.66 85.0228 15.73 84.8762 15.87C84.7362 16.01 84.6662 16.1733 84.6662 16.36C84.6662 16.5133 84.7162 16.64 84.8162 16.74C84.9162 16.8333 85.0462 16.9167 85.2062 16.99C85.3662 17.0567 85.5362 17.1267 85.7162 17.2C85.9495 17.2867 86.1795 17.3867 86.4062 17.5C86.6328 17.6067 86.8195 17.7533 86.9662 17.94C87.1195 18.12 87.1962 18.3633 87.1962 18.67C87.1962 18.93 87.1262 19.17 86.9862 19.39C86.8528 19.61 86.6528 19.7867 86.3862 19.92C86.1262 20.0533 85.8028 20.12 85.4162 20.12Z" fill="#74B047"/>
<line x1="7" y1="24.5" x2="34.1" y2="24.5" stroke="url(#paint0_linear_15_33)"/>
<path d="M12 27.5L37 27.5" stroke="url(#paint1_linear_15_33)"/>
<rect x="9.025" y="26.025" width="2.95" height="2.95" rx="0.475" fill="#70B646" stroke="white" stroke-width="0.05"/>
<path d="M37.5 26.5C38.0523 26.5 38.5 26.9477 38.5 27.5C38.5 28.0523 38.0523 28.5 37.5 28.5C36.9477 28.5 36.5 28.0523 36.5 27.5C36.5 26.9477 36.9477 26.5 37.5 26.5Z" stroke="#4F973A"/>
<path d="M16 30.5H19.3511H28.9561C29.925 30.5 30.8342 30.0321 31.3973 29.2437L33 27L34.7171 23.9092C35.2003 23.0394 36.1171 22.5 37.112 22.5H42" stroke="url(#paint2_linear_15_33)"/>
<path d="M13.5 29.0254H15.5C15.7623 29.0254 15.9746 29.2377 15.9746 29.5V31.5C15.9746 31.7623 15.7623 31.9746 15.5 31.9746H13.5C13.2377 31.9746 13.0254 31.7623 13.0254 31.5V29.5C13.0254 29.2377 13.2377 29.0254 13.5 29.0254Z" fill="#70B646" stroke="white" stroke-width="0.05"/>
<path d="M42.5 21.0254H44.5C44.7623 21.0254 44.9746 21.2377 44.9746 21.5V23.5C44.9746 23.7623 44.7623 23.9746 44.5 23.9746H42.5C42.2377 23.9746 42.0254 23.7623 42.0254 23.5V21.5C42.0254 21.2377 42.2377 21.0254 42.5 21.0254Z" fill="#70B646" stroke="white" stroke-width="0.05"/>
<rect x="4.025" y="23.025" width="2.95" height="2.95" rx="0.475" fill="#72B541" stroke="white" stroke-width="0.05"/>
<defs>
<linearGradient id="paint0_linear_15_33" x1="7" y1="25.5" x2="34.1" y2="25.5" gradientUnits="userSpaceOnUse">
<stop stop-color="#72B541"/>
<stop offset="1" stop-color="#77B449"/>
</linearGradient>
<linearGradient id="paint1_linear_15_33" x1="9.41379" y1="28.5" x2="37" y2="28.5" gradientUnits="userSpaceOnUse">
<stop stop-color="#70B646"/>
<stop offset="1" stop-color="#4F973A"/>
</linearGradient>
<linearGradient id="paint2_linear_15_33" x1="27.7288" y1="23.1667" x2="27.7288" y2="33.8333" gradientUnits="userSpaceOnUse">
<stop stop-color="#4F973A"/>
<stop offset="1" stop-color="#70B646"/>
</linearGradient>
</defs>
</svg>
