<svg width="70" height="70" viewBox="0 0 70 70" fill="none" xmlns="http://www.w3.org/2000/svg">
<rect width="70" height="70" fill="white"/>
<line x1="18" y1="41.5" x2="45.1" y2="41.5" stroke="url(#paint0_linear_33_79)"/>
<path d="M23 44.5L48 44.5" stroke="url(#paint1_linear_33_79)"/>
<rect x="19.95" y="43" width="3" height="3" rx="0.5" fill="#70B646"/>
<path d="M48.5 43.5C49.0523 43.5 49.5 43.9477 49.5 44.5C49.5 45.0523 49.0523 45.5 48.5 45.5C47.9477 45.5 47.5 45.0523 47.5 44.5C47.5 43.9477 47.9477 43.5 48.5 43.5Z" stroke="#4F973A"/>
<path d="M27 47.5H30.3511H39.9561C40.925 47.5 41.8342 47.0321 42.3973 46.2437L44 44L45.7171 40.9092C46.2003 40.0394 47.1171 39.5 48.112 39.5H53" stroke="url(#paint2_linear_33_79)"/>
<path d="M23.95 46.5C23.95 46.2239 24.1738 46 24.45 46H26.45C26.7261 46 26.95 46.2239 26.95 46.5V48.5C26.95 48.7761 26.7261 49 26.45 49H24.45C24.1738 49 23.95 48.7761 23.95 48.5V46.5Z" fill="#70B646"/>
<path d="M53.05 38.5C53.05 38.2239 53.2739 38 53.55 38H55.55C55.8262 38 56.05 38.2239 56.05 38.5V40.5C56.05 40.7761 55.8262 41 55.55 41H53.55C53.2739 41 53.05 40.7761 53.05 40.5V38.5Z" fill="#70B646"/>
<rect x="14.95" y="40" width="3" height="3" rx="0.5" fill="#72B541"/>
<path d="M15.0322 37V27.28H16.3922L16.5322 28.68H16.5922C17.0589 28.2133 17.5522 27.8267 18.0722 27.52C18.5922 27.2 19.1855 27.04 19.8522 27.04C20.8789 27.04 21.6255 27.3667 22.0922 28.02C22.5722 28.66 22.8122 29.6 22.8122 30.84V37H21.1722V31.06C21.1722 30.1533 21.0255 29.4933 20.7322 29.08C20.4389 28.6667 19.9722 28.46 19.3322 28.46C18.8389 28.46 18.3922 28.5867 17.9922 28.84C17.6055 29.0933 17.1655 29.4667 16.6722 29.96V37H15.0322ZM30.7097 37.24C29.843 37.24 29.0564 37.04 28.3497 36.64C27.643 36.2267 27.083 35.64 26.6697 34.88C26.2564 34.12 26.0497 33.2133 26.0497 32.16C26.0497 31.0933 26.2564 30.18 26.6697 29.42C27.0964 28.66 27.643 28.0733 28.3097 27.66C28.9764 27.2467 29.6764 27.04 30.4097 27.04C31.6497 27.04 32.603 27.4533 33.2697 28.28C33.9497 29.1067 34.2897 30.2133 34.2897 31.6C34.2897 31.7733 34.283 31.9467 34.2697 32.12C34.2697 32.28 34.2564 32.42 34.2297 32.54H27.6697C27.7364 33.5667 28.0564 34.3867 28.6297 35C29.2164 35.6133 29.9764 35.92 30.9097 35.92C31.3764 35.92 31.803 35.8533 32.1897 35.72C32.5897 35.5733 32.9697 35.3867 33.3297 35.16L33.9097 36.24C33.4964 36.5067 33.023 36.74 32.4897 36.94C31.9697 37.14 31.3764 37.24 30.7097 37.24ZM27.6497 31.36H32.8497C32.8497 30.3733 32.6364 29.6267 32.2097 29.12C31.7964 28.6 31.2097 28.34 30.4497 28.34C29.7697 28.34 29.1564 28.6067 28.6097 29.14C28.0764 29.66 27.7564 30.4 27.6497 31.36ZM40.3563 37.24C39.3163 37.24 38.5896 36.94 38.1763 36.34C37.7763 35.74 37.5763 34.96 37.5763 34V28.62H36.1363V27.38L37.6563 27.28L37.8563 24.56H39.2363V27.28H41.8563V28.62H39.2363V34.02C39.2363 34.62 39.3429 35.0867 39.5563 35.42C39.7829 35.74 40.1763 35.9 40.7363 35.9C40.9096 35.9 41.0963 35.8733 41.2963 35.82C41.4963 35.7533 41.6763 35.6933 41.8363 35.64L42.1563 36.88C41.8896 36.9733 41.5963 37.0533 41.2763 37.12C40.9696 37.2 40.6629 37.24 40.3563 37.24ZM43.8341 37V36.12L48.9541 28.62H44.3941V27.28H51.0341V28.16L45.9141 35.66H51.1941V37H43.8341ZM55.8902 37.24C55.2768 37.24 54.8302 37.0533 54.5502 36.68C54.2835 36.2933 54.1502 35.7467 54.1502 35.04V22.76H55.7902V35.16C55.7902 35.4133 55.8368 35.6 55.9302 35.72C56.0235 35.8267 56.1302 35.88 56.2502 35.88C56.3035 35.88 56.3502 35.88 56.3902 35.88C56.4435 35.8667 56.5168 35.8533 56.6102 35.84L56.8302 37.08C56.7235 37.1333 56.5968 37.1733 56.4502 37.2C56.3035 37.2267 56.1168 37.24 55.8902 37.24Z" fill="#47484B"/>
<defs>
<linearGradient id="paint0_linear_33_79" x1="18" y1="42.5" x2="45.1" y2="42.5" gradientUnits="userSpaceOnUse">
<stop stop-color="#72B541"/>
<stop offset="1" stop-color="#77B449"/>
</linearGradient>
<linearGradient id="paint1_linear_33_79" x1="20.4138" y1="45.5" x2="48" y2="45.5" gradientUnits="userSpaceOnUse">
<stop stop-color="#70B646"/>
<stop offset="1" stop-color="#4F973A"/>
</linearGradient>
<linearGradient id="paint2_linear_33_79" x1="38.7288" y1="40.1667" x2="38.7288" y2="50.8333" gradientUnits="userSpaceOnUse">
<stop stop-color="#4F973A"/>
<stop offset="1" stop-color="#70B646"/>
</linearGradient>
</defs>
</svg>
