<svg width="16" height="16" viewBox="0 0 16 16" fill="none" xmlns="http://www.w3.org/2000/svg">
<g clip-path="url(#clip0_40_47)">
<rect width="16" height="16" rx="2" fill="white"/>
<path d="M27.3374 12.9041V13.7577L4.20361 13.7577V12.9041L27.3374 12.9041Z" fill="url(#paint0_linear_40_47)"/>
<path d="M29.8131 15.465L29.8131 16.3186L8.47168 16.3186L8.47168 15.465L29.8131 15.465Z" fill="url(#paint1_linear_40_47)"/>
<path d="M5.86768 15.0377C5.86768 14.8019 6.05877 14.6108 6.2945 14.6108H8.00182C8.23755 14.6108 8.42865 14.8019 8.42865 15.0377V16.745C8.42865 16.9807 8.23755 17.1718 8.00182 17.1718H6.2945C6.05877 17.1718 5.86768 16.9807 5.86768 16.745V15.0377Z" fill="#70B646"/>
<path d="M34.0816 11.1967V12.0503H29.9092C29.2148 12.0503 28.5749 12.4271 28.2377 13.034L26.7721 15.6725L26.7596 15.6934L26.7463 15.7134L25.3783 17.6283C24.8174 18.4135 23.9114 18.8796 22.9465 18.8796H11.8865V18.0259H22.9465C23.6357 18.0259 24.2824 17.693 24.683 17.1322L26.0369 15.2357L27.4916 12.6189C27.9794 11.7411 28.9049 11.1967 29.9092 11.1967H34.0816Z" fill="url(#paint2_linear_40_47)"/>
<path d="M1.6001 12.477C1.6001 12.2413 1.7912 12.0502 2.02693 12.0502H3.73424C3.96997 12.0502 4.16107 12.2413 4.16107 12.477V14.1843C4.16107 14.42 3.96997 14.6111 3.73424 14.6111H2.02693C1.7912 14.6111 1.6001 14.42 1.6001 14.1843V12.477Z" fill="#72B541"/>
<path d="M15.0532 9.69413C14.3134 9.69413 13.6419 9.5234 13.0386 9.18194C12.4354 8.82909 11.9573 8.32828 11.6045 7.6795C11.2516 7.03072 11.0752 6.25673 11.0752 5.35755C11.0752 4.44698 11.2516 3.6673 11.6045 3.01852C11.9687 2.36974 12.4354 1.86893 13.0045 1.51608C13.5736 1.16324 14.1711 0.986816 14.7971 0.986816C15.8557 0.986816 16.6695 1.33966 17.2386 2.04535C17.8191 2.75104 18.1093 3.69576 18.1093 4.8795C18.1093 5.02747 18.1036 5.17543 18.0923 5.3234C18.0923 5.45999 18.0809 5.5795 18.0581 5.68194H12.4581C12.515 6.55836 12.7882 7.25836 13.2776 7.78194C13.7784 8.30551 14.4272 8.5673 15.224 8.5673C15.6223 8.5673 15.9866 8.51039 16.3167 8.39657C16.6581 8.27137 16.9825 8.11202 17.2898 7.91852L17.7849 8.84047C17.4321 9.06811 17.028 9.2673 16.5728 9.43803C16.1289 9.60876 15.6223 9.69413 15.0532 9.69413ZM12.441 4.67462H16.8801C16.8801 3.83234 16.698 3.19495 16.3337 2.76243C15.9809 2.31852 15.4801 2.09657 14.8313 2.09657C14.2508 2.09657 13.7272 2.32421 13.2606 2.7795C12.8053 3.2234 12.5321 3.85511 12.441 4.67462Z" fill="#47484B"/>
<path d="M1.67017 9.48925V1.19169H2.83114L2.95065 2.38682H3.00187C3.40025 1.98844 3.82138 1.65836 4.26529 1.39657C4.70919 1.1234 5.21569 0.986816 5.7848 0.986816C6.66122 0.986816 7.29862 1.26568 7.69699 1.8234C8.10675 2.36974 8.31163 3.17218 8.31163 4.23072V9.48925H6.91163V4.41852C6.91163 3.64454 6.78643 3.08112 6.53602 2.72828C6.28561 2.37543 5.88724 2.19901 5.3409 2.19901C4.91976 2.19901 4.53846 2.30714 4.19699 2.5234C3.86691 2.73966 3.4913 3.05836 3.07017 3.4795V9.48925H1.67017Z" fill="#47484B"/>
</g>
<defs>
<linearGradient id="paint0_linear_40_47" x1="4.20361" y1="14.1845" x2="27.3377" y2="14.1845" gradientUnits="userSpaceOnUse">
<stop stop-color="#72B541"/>
<stop offset="1" stop-color="#77B449"/>
</linearGradient>
<linearGradient id="paint1_linear_40_47" x1="6.26394" y1="16.7455" x2="29.8131" y2="16.7455" gradientUnits="userSpaceOnUse">
<stop stop-color="#70B646"/>
<stop offset="1" stop-color="#4F973A"/>
</linearGradient>
<linearGradient id="paint2_linear_40_47" x1="21.8989" y1="12.1926" x2="21.8989" y2="21.2983" gradientUnits="userSpaceOnUse">
<stop stop-color="#4F973A"/>
<stop offset="1" stop-color="#70B646"/>
</linearGradient>
<clipPath id="clip0_40_47">
<rect width="16" height="16" rx="2" fill="white"/>
</clipPath>
</defs>
</svg>
