<svg width="15" height="15" viewBox="0 0 15 15" fill="none" xmlns="http://www.w3.org/2000/svg">
<g clip-path="url(#clip0_40_30)">
<rect width="15" height="15" fill="white"/>
<path d="M25.6289 12.0975V12.8978L3.94092 12.8978V12.0975L25.6289 12.0975Z" fill="url(#paint0_linear_40_30)"/>
<path d="M27.9498 14.4984L27.9498 15.2987L7.94214 15.2987L7.94214 14.4984L27.9498 14.4984Z" fill="url(#paint1_linear_40_30)"/>
<path d="M5.50098 14.0978C5.50098 13.8768 5.68013 13.6976 5.90113 13.6976H7.50174C7.72274 13.6976 7.90189 13.8768 7.90189 14.0978V15.6984C7.90189 15.9194 7.72274 16.0985 7.50174 16.0985H5.90113C5.68013 16.0985 5.50098 15.9194 5.50098 15.6984V14.0978Z" fill="#70B646"/>
<path d="M31.9515 10.4968V11.2971H28.0398C27.3889 11.2971 26.789 11.6503 26.4728 12.2194L25.0989 14.693L25.0871 14.7125L25.0746 14.7312L23.7921 16.5265C23.2663 17.2626 22.417 17.6996 21.5123 17.6996H11.1436V16.8993H21.5123C22.1584 16.8993 22.7647 16.5872 23.1403 16.0614L24.4095 14.2834L25.7733 11.8301C26.2307 11.0072 27.0983 10.4968 28.0398 10.4968H31.9515Z" fill="url(#paint2_linear_40_30)"/>
<path d="M1.5 11.6971C1.5 11.4762 1.67915 11.297 1.90015 11.297H3.50076C3.72176 11.297 3.90091 11.4762 3.90091 11.6971V13.2978C3.90091 13.5188 3.72176 13.6979 3.50076 13.6979H1.90015C1.67915 13.6979 1.5 13.5188 1.5 13.2978V11.6971Z" fill="#72B541"/>
<path d="M14.1125 9.08828C13.4189 9.08828 12.7893 8.92822 12.2238 8.60809C11.6582 8.2773 11.21 7.80779 10.8792 7.19956C10.5485 6.59133 10.3831 5.86572 10.3831 5.02273C10.3831 4.16907 10.5485 3.43813 10.8792 2.8299C11.2207 2.22166 11.6582 1.75215 12.1917 1.42136C12.7253 1.09057 13.2855 0.925171 13.8724 0.925171C14.8648 0.925171 15.6277 1.25596 16.1613 1.91755C16.7055 2.57913 16.9776 3.4648 16.9776 4.57456C16.9776 4.71328 16.9722 4.852 16.9616 4.99072C16.9616 5.11877 16.9509 5.23081 16.9295 5.32685H11.6796C11.7329 6.14849 11.989 6.80474 12.4478 7.2956C12.9174 7.78645 13.5256 8.03188 14.2725 8.03188C14.646 8.03188 14.9875 7.97852 15.2969 7.87181C15.617 7.75444 15.9212 7.60505 16.2093 7.42364L16.6735 8.28797C16.3427 8.50139 15.9638 8.68812 15.537 8.84819C15.1209 9.00825 14.646 9.08828 14.1125 9.08828ZM11.6635 4.38249H15.8251C15.8251 3.59285 15.6544 2.99529 15.3129 2.5898C14.9821 2.17365 14.5126 1.96557 13.9044 1.96557C13.3602 1.96557 12.8693 2.17898 12.4318 2.60581C12.005 3.02197 11.7489 3.61419 11.6635 4.38249Z" fill="#47484B"/>
<path d="M1.56567 8.8962V1.11724H2.65409L2.76613 2.23767H2.81415C3.18762 1.86419 3.58244 1.55474 3.9986 1.30932C4.41476 1.05322 4.88961 0.925171 5.42314 0.925171C6.24479 0.925171 6.84235 1.1866 7.21583 1.70947C7.59997 2.22166 7.79204 2.97395 7.79204 3.96633V8.8962H6.47954V4.1424C6.47954 3.41679 6.36217 2.88858 6.12741 2.55779C5.89265 2.227 5.51918 2.0616 5.00698 2.0616C4.61217 2.0616 4.2547 2.16298 3.93458 2.36572C3.62512 2.56846 3.27299 2.86724 2.87817 3.26206V8.8962H1.56567Z" fill="#47484B"/>
</g>
<defs>
<linearGradient id="paint0_linear_40_30" x1="3.94092" y1="13.298" x2="25.6292" y2="13.298" gradientUnits="userSpaceOnUse">
<stop stop-color="#72B541"/>
<stop offset="1" stop-color="#77B449"/>
</linearGradient>
<linearGradient id="paint1_linear_40_30" x1="5.87239" y1="15.6989" x2="27.9498" y2="15.6989" gradientUnits="userSpaceOnUse">
<stop stop-color="#70B646"/>
<stop offset="1" stop-color="#4F973A"/>
</linearGradient>
<linearGradient id="paint2_linear_40_30" x1="20.5302" y1="11.4305" x2="20.5302" y2="19.9671" gradientUnits="userSpaceOnUse">
<stop stop-color="#4F973A"/>
<stop offset="1" stop-color="#70B646"/>
</linearGradient>
<clipPath id="clip0_40_30">
<rect width="15" height="15" fill="white"/>
</clipPath>
</defs>
</svg>
