<svg width="89" height="28" viewBox="0 0 89 28" fill="none" xmlns="http://www.w3.org/2000/svg">
<path d="M1.64 16V6.28H3L3.14 7.68H3.2C3.66667 7.21333 4.16 6.82667 4.68 6.52C5.2 6.2 5.79333 6.04 6.46 6.04C7.48667 6.04 8.23333 6.36667 8.7 7.02C9.18 7.66 9.42 8.6 9.42 9.84V16H7.78V10.06C7.78 9.15333 7.63333 8.49333 7.34 8.08C7.04667 7.66667 6.58 7.46 5.94 7.46C5.44667 7.46 5 7.58667 4.6 7.84C4.21333 8.09333 3.77333 8.46667 3.28 8.96V16H1.64ZM17.3175 16.24C16.4508 16.24 15.6642 16.04 14.9575 15.64C14.2508 15.2267 13.6908 14.64 13.2775 13.88C12.8642 13.12 12.6575 12.2133 12.6575 11.16C12.6575 10.0933 12.8642 9.18 13.2775 8.42C13.7042 7.66 14.2508 7.07333 14.9175 6.66C15.5842 6.24667 16.2842 6.04 17.0175 6.04C18.2575 6.04 19.2108 6.45333 19.8775 7.28C20.5575 8.10667 20.8975 9.21333 20.8975 10.6C20.8975 10.7733 20.8908 10.9467 20.8775 11.12C20.8775 11.28 20.8642 11.42 20.8375 11.54H14.2775C14.3442 12.5667 14.6642 13.3867 15.2375 14C15.8242 14.6133 16.5842 14.92 17.5175 14.92C17.9842 14.92 18.4108 14.8533 18.7975 14.72C19.1975 14.5733 19.5775 14.3867 19.9375 14.16L20.5175 15.24C20.1042 15.5067 19.6308 15.74 19.0975 15.94C18.5775 16.14 17.9842 16.24 17.3175 16.24ZM14.2575 10.36H19.4575C19.4575 9.37333 19.2442 8.62667 18.8175 8.12C18.4042 7.6 17.8175 7.34 17.0575 7.34C16.3775 7.34 15.7642 7.60667 15.2175 8.14C14.6842 8.66 14.3642 9.4 14.2575 10.36ZM26.9641 16.24C25.9241 16.24 25.1974 15.94 24.7841 15.34C24.3841 14.74 24.1841 13.96 24.1841 13V7.62H22.7441V6.38L24.2641 6.28L24.4641 3.56H25.8441V6.28H28.4641V7.62H25.8441V13.02C25.8441 13.62 25.9507 14.0867 26.1641 14.42C26.3907 14.74 26.7841 14.9 27.3441 14.9C27.5174 14.9 27.7041 14.8733 27.9041 14.82C28.1041 14.7533 28.2841 14.6933 28.4441 14.64L28.7641 15.88C28.4974 15.9733 28.2041 16.0533 27.8841 16.12C27.5774 16.2 27.2707 16.24 26.9641 16.24ZM30.4419 16V15.12L35.5619 7.62H31.0019V6.28H37.6419V7.16L32.5219 14.66H37.8019V16H30.4419ZM42.498 16.24C41.8846 16.24 41.438 16.0533 41.158 15.68C40.8913 15.2933 40.758 14.7467 40.758 14.04V1.76H42.398V14.16C42.398 14.4133 42.4446 14.6 42.538 14.72C42.6313 14.8267 42.738 14.88 42.858 14.88C42.9113 14.88 42.958 14.88 42.998 14.88C43.0513 14.8667 43.1246 14.8533 43.218 14.84L43.438 16.08C43.3313 16.1333 43.2046 16.1733 43.058 16.2C42.9113 16.2267 42.7246 16.24 42.498 16.24Z" fill="#47484B"/>
<path d="M47.48 8.12C46.8733 8.12 46.3867 7.9 46.02 7.46C45.6533 7.01333 45.47 6.38667 45.47 5.58C45.47 5.05333 45.5667 4.6 45.76 4.22C45.96 3.83333 46.22 3.53667 46.54 3.33C46.8667 3.12333 47.2133 3.02 47.58 3.02C47.86 3.02 48.1033 3.07 48.31 3.17C48.5167 3.27 48.7267 3.40667 48.94 3.58L48.9 2.75V0.88H49.73V8H49.05L48.98 7.43H48.95C48.7633 7.61667 48.5433 7.78 48.29 7.92C48.0367 8.05333 47.7667 8.12 47.48 8.12ZM47.66 7.43C48.0867 7.43 48.5 7.20667 48.9 6.76V4.22C48.6933 4.03333 48.4933 3.90333 48.3 3.83C48.1133 3.75 47.92 3.71 47.72 3.71C47.46 3.71 47.2233 3.79 47.01 3.95C46.8033 4.10333 46.6367 4.32 46.51 4.6C46.3833 4.87333 46.32 5.19667 46.32 5.57C46.32 6.15 46.4367 6.60667 46.67 6.94C46.9033 7.26667 47.2333 7.43 47.66 7.43ZM52.9869 8.12C52.5802 8.12 52.2402 8 51.9669 7.76C51.7002 7.51333 51.5669 7.17333 51.5669 6.74C51.5669 6.20667 51.8035 5.8 52.2769 5.52C52.7569 5.23333 53.5135 5.03333 54.5469 4.92C54.5469 4.71333 54.5169 4.51667 54.4569 4.33C54.4035 4.14333 54.3035 3.99333 54.1569 3.88C54.0169 3.76 53.8135 3.7 53.5469 3.7C53.2669 3.7 53.0035 3.75333 52.7569 3.86C52.5102 3.96667 52.2902 4.08667 52.0969 4.22L51.7769 3.65C52.0035 3.50333 52.2802 3.36333 52.6069 3.23C52.9402 3.09 53.3002 3.02 53.6869 3.02C54.2802 3.02 54.7102 3.20333 54.9769 3.57C55.2435 3.93 55.3769 4.41333 55.3769 5.02V8H54.6969L54.6269 7.42H54.5969C54.3702 7.60667 54.1202 7.77 53.8469 7.91C53.5802 8.05 53.2935 8.12 52.9869 8.12ZM53.2269 7.46C53.4602 7.46 53.6802 7.40333 53.8869 7.29C54.0935 7.17667 54.3135 7.01667 54.5469 6.81V5.46C53.7402 5.56 53.1735 5.71 52.8469 5.91C52.5269 6.11 52.3669 6.36667 52.3669 6.68C52.3669 6.95333 52.4502 7.15333 52.6169 7.28C52.7835 7.4 52.9869 7.46 53.2269 7.46ZM58.7992 8.12C58.2792 8.12 57.9159 7.97 57.7092 7.67C57.5092 7.37 57.4092 6.98 57.4092 6.5V3.81H56.6892V3.19L57.4492 3.14L57.5492 1.78H58.2392V3.14H59.5492V3.81H58.2392V6.51C58.2392 6.81 58.2926 7.04333 58.3992 7.21C58.5126 7.37 58.7092 7.45 58.9892 7.45C59.0759 7.45 59.1692 7.43667 59.2692 7.41C59.3692 7.37667 59.4592 7.34667 59.5392 7.32L59.6992 7.94C59.5659 7.98667 59.4192 8.02667 59.2592 8.06C59.1059 8.1 58.9526 8.12 58.7992 8.12ZM62.0533 8.12C61.6466 8.12 61.3066 8 61.0333 7.76C60.7666 7.51333 60.6333 7.17333 60.6333 6.74C60.6333 6.20667 60.8699 5.8 61.3433 5.52C61.8233 5.23333 62.5799 5.03333 63.6133 4.92C63.6133 4.71333 63.5833 4.51667 63.5233 4.33C63.4699 4.14333 63.3699 3.99333 63.2233 3.88C63.0833 3.76 62.8799 3.7 62.6133 3.7C62.3333 3.7 62.0699 3.75333 61.8233 3.86C61.5766 3.96667 61.3566 4.08667 61.1633 4.22L60.8433 3.65C61.0699 3.50333 61.3466 3.36333 61.6733 3.23C62.0066 3.09 62.3666 3.02 62.7533 3.02C63.3466 3.02 63.7766 3.20333 64.0433 3.57C64.3099 3.93 64.4433 4.41333 64.4433 5.02V8H63.7633L63.6933 7.42H63.6633C63.4366 7.60667 63.1866 7.77 62.9133 7.91C62.6466 8.05 62.3599 8.12 62.0533 8.12ZM62.2933 7.46C62.5266 7.46 62.7466 7.40333 62.9533 7.29C63.1599 7.17667 63.3799 7.01667 63.6133 6.81V5.46C62.8066 5.56 62.2399 5.71 61.9133 5.91C61.5933 6.11 61.4333 6.36667 61.4333 6.68C61.4333 6.95333 61.5166 7.15333 61.6833 7.28C61.8499 7.4 62.0533 7.46 62.2933 7.46ZM47.09 16.12C46.7433 16.12 46.4133 16.0567 46.1 15.93C45.7867 15.7967 45.5133 15.6367 45.28 15.45L45.69 14.9C45.9033 15.0667 46.1233 15.2067 46.35 15.32C46.5767 15.4267 46.8333 15.48 47.12 15.48C47.44 15.48 47.68 15.4067 47.84 15.26C48 15.1067 48.08 14.9267 48.08 14.72C48.08 14.5533 48.0233 14.4133 47.91 14.3C47.8033 14.1867 47.6633 14.0933 47.49 14.02C47.3233 13.94 47.15 13.8667 46.97 13.8C46.7433 13.7133 46.52 13.6167 46.3 13.51C46.08 13.3967 45.9 13.2533 45.76 13.08C45.62 12.9 45.55 12.6733 45.55 12.4C45.55 12.0067 45.6967 11.68 45.99 11.42C46.29 11.1533 46.7033 11.02 47.23 11.02C47.53 11.02 47.81 11.0733 48.07 11.18C48.33 11.2867 48.5533 11.4167 48.74 11.57L48.34 12.09C48.1733 11.9633 48 11.86 47.82 11.78C47.64 11.7 47.4433 11.66 47.23 11.66C46.9233 11.66 46.6967 11.73 46.55 11.87C46.41 12.01 46.34 12.1733 46.34 12.36C46.34 12.5133 46.39 12.64 46.49 12.74C46.59 12.8333 46.72 12.9167 46.88 12.99C47.04 13.0567 47.21 13.1267 47.39 13.2C47.6233 13.2867 47.8533 13.3867 48.08 13.5C48.3067 13.6067 48.4933 13.7533 48.64 13.94C48.7933 14.12 48.87 14.3633 48.87 14.67C48.87 14.93 48.8 15.17 48.66 15.39C48.5267 15.61 48.3267 15.7867 48.06 15.92C47.8 16.0533 47.4767 16.12 47.09 16.12ZM52.3995 16.12C52.0061 16.12 51.6361 16.02 51.2895 15.82C50.9495 15.62 50.6728 15.33 50.4595 14.95C50.2528 14.57 50.1495 14.1133 50.1495 13.58C50.1495 13.0333 50.2528 12.57 50.4595 12.19C50.6728 11.81 50.9495 11.52 51.2895 11.32C51.6361 11.12 52.0061 11.02 52.3995 11.02C52.7995 11.02 53.1695 11.12 53.5095 11.32C53.8495 11.52 54.1228 11.81 54.3295 12.19C54.5428 12.57 54.6495 13.0333 54.6495 13.58C54.6495 14.1133 54.5428 14.57 54.3295 14.95C54.1228 15.33 53.8495 15.62 53.5095 15.82C53.1695 16.02 52.7995 16.12 52.3995 16.12ZM52.3995 15.44C52.8195 15.44 53.1561 15.27 53.4095 14.93C53.6695 14.5833 53.7995 14.1333 53.7995 13.58C53.7995 13.02 53.6695 12.5667 53.4095 12.22C53.1561 11.8733 52.8195 11.7 52.3995 11.7C51.9861 11.7 51.6495 11.8733 51.3895 12.22C51.1295 12.5667 50.9995 13.02 50.9995 13.58C50.9995 14.1333 51.1295 14.5833 51.3895 14.93C51.6495 15.27 51.9861 15.44 52.3995 15.44ZM57.2994 16.12C56.9927 16.12 56.7694 16.0267 56.6294 15.84C56.496 15.6467 56.4294 15.3733 56.4294 15.02V8.88H57.2494V15.08C57.2494 15.2067 57.2727 15.3 57.3194 15.36C57.366 15.4133 57.4194 15.44 57.4794 15.44C57.506 15.44 57.5294 15.44 57.5494 15.44C57.576 15.4333 57.6127 15.4267 57.6594 15.42L57.7694 16.04C57.716 16.0667 57.6527 16.0867 57.5794 16.1C57.506 16.1133 57.4127 16.12 57.2994 16.12ZM60.8982 16.12C60.3849 16.12 60.0082 15.96 59.7682 15.64C59.5282 15.3133 59.4082 14.84 59.4082 14.22V11.14H60.2382V14.11C60.2382 14.5633 60.3082 14.8933 60.4482 15.1C60.5949 15.3067 60.8282 15.41 61.1482 15.41C61.4015 15.41 61.6249 15.3467 61.8182 15.22C62.0182 15.0867 62.2315 14.8767 62.4582 14.59V11.14H63.2782V16H62.5982L62.5282 15.24H62.4982C62.2715 15.5067 62.0315 15.72 61.7782 15.88C61.5249 16.04 61.2315 16.12 60.8982 16.12ZM66.9477 16.12C66.4277 16.12 66.0643 15.97 65.8577 15.67C65.6577 15.37 65.5577 14.98 65.5577 14.5V11.81H64.8377V11.19L65.5977 11.14L65.6977 9.78H66.3877V11.14H67.6977V11.81H66.3877V14.51C66.3877 14.81 66.441 15.0433 66.5477 15.21C66.661 15.37 66.8577 15.45 67.1377 15.45C67.2243 15.45 67.3177 15.4367 67.4177 15.41C67.5177 15.3767 67.6077 15.3467 67.6877 15.32L67.8477 15.94C67.7143 15.9867 67.5677 16.0267 67.4077 16.06C67.2543 16.1 67.101 16.12 66.9477 16.12ZM69.2966 16V11.14H70.1166V16H69.2966ZM69.7166 10.14C69.5566 10.14 69.4232 10.0933 69.3166 10C69.2166 9.9 69.1666 9.76667 69.1666 9.6C69.1666 9.44 69.2166 9.31 69.3166 9.21C69.4232 9.11 69.5566 9.06 69.7166 9.06C69.8766 9.06 70.0066 9.11 70.1066 9.21C70.2132 9.31 70.2666 9.44 70.2666 9.6C70.2666 9.76667 70.2132 9.9 70.1066 10C70.0066 10.0933 69.8766 10.14 69.7166 10.14ZM74.1475 16.12C73.7542 16.12 73.3842 16.02 73.0375 15.82C72.6975 15.62 72.4208 15.33 72.2075 14.95C72.0008 14.57 71.8975 14.1133 71.8975 13.58C71.8975 13.0333 72.0008 12.57 72.2075 12.19C72.4208 11.81 72.6975 11.52 73.0375 11.32C73.3842 11.12 73.7542 11.02 74.1475 11.02C74.5475 11.02 74.9175 11.12 75.2575 11.32C75.5975 11.52 75.8708 11.81 76.0775 12.19C76.2908 12.57 76.3975 13.0333 76.3975 13.58C76.3975 14.1133 76.2908 14.57 76.0775 14.95C75.8708 15.33 75.5975 15.62 75.2575 15.82C74.9175 16.02 74.5475 16.12 74.1475 16.12ZM74.1475 15.44C74.5675 15.44 74.9042 15.27 75.1575 14.93C75.4175 14.5833 75.5475 14.1333 75.5475 13.58C75.5475 13.02 75.4175 12.5667 75.1575 12.22C74.9042 11.8733 74.5675 11.7 74.1475 11.7C73.7342 11.7 73.3975 11.8733 73.1375 12.22C72.8775 12.5667 72.7475 13.02 72.7475 13.58C72.7475 14.1333 72.8775 14.5833 73.1375 14.93C73.3975 15.27 73.7342 15.44 74.1475 15.44ZM78.1774 16V11.14H78.8574L78.9274 11.84H78.9574C79.1908 11.6067 79.4374 11.4133 79.6974 11.26C79.9574 11.1 80.2541 11.02 80.5874 11.02C81.1008 11.02 81.4741 11.1833 81.7074 11.51C81.9474 11.83 82.0674 12.3 82.0674 12.92V16H81.2474V13.03C81.2474 12.5767 81.1741 12.2467 81.0274 12.04C80.8808 11.8333 80.6474 11.73 80.3274 11.73C80.0808 11.73 79.8574 11.7933 79.6574 11.92C79.4641 12.0467 79.2441 12.2333 78.9974 12.48V16H78.1774ZM85.4162 16.12C85.0695 16.12 84.7395 16.0567 84.4262 15.93C84.1128 15.7967 83.8395 15.6367 83.6062 15.45L84.0162 14.9C84.2295 15.0667 84.4495 15.2067 84.6762 15.32C84.9028 15.4267 85.1595 15.48 85.4462 15.48C85.7662 15.48 86.0062 15.4067 86.1662 15.26C86.3262 15.1067 86.4062 14.9267 86.4062 14.72C86.4062 14.5533 86.3495 14.4133 86.2362 14.3C86.1295 14.1867 85.9895 14.0933 85.8162 14.02C85.6495 13.94 85.4762 13.8667 85.2962 13.8C85.0695 13.7133 84.8462 13.6167 84.6262 13.51C84.4062 13.3967 84.2262 13.2533 84.0862 13.08C83.9462 12.9 83.8762 12.6733 83.8762 12.4C83.8762 12.0067 84.0228 11.68 84.3162 11.42C84.6162 11.1533 85.0295 11.02 85.5562 11.02C85.8562 11.02 86.1362 11.0733 86.3962 11.18C86.6562 11.2867 86.8795 11.4167 87.0662 11.57L86.6662 12.09C86.4995 11.9633 86.3262 11.86 86.1462 11.78C85.9662 11.7 85.7695 11.66 85.5562 11.66C85.2495 11.66 85.0228 11.73 84.8762 11.87C84.7362 12.01 84.6662 12.1733 84.6662 12.36C84.6662 12.5133 84.7162 12.64 84.8162 12.74C84.9162 12.8333 85.0462 12.9167 85.2062 12.99C85.3662 13.0567 85.5362 13.1267 85.7162 13.2C85.9495 13.2867 86.1795 13.3867 86.4062 13.5C86.6328 13.6067 86.8195 13.7533 86.9662 13.94C87.1195 14.12 87.1962 14.3633 87.1962 14.67C87.1962 14.93 87.1262 15.17 86.9862 15.39C86.8528 15.61 86.6528 15.7867 86.3862 15.92C86.1262 16.0533 85.8028 16.12 85.4162 16.12Z" fill="#74B047"/>
<line x1="7" y1="20.5" x2="34.1" y2="20.5" stroke="url(#paint0_linear_15_33)"/>
<path d="M12 23.5L37 23.5" stroke="url(#paint1_linear_15_33)"/>
<rect x="8.94995" y="22" width="3" height="3" rx="0.5" fill="#70B646"/>
<path d="M37.5 22.5C38.0523 22.5 38.5 22.9477 38.5 23.5C38.5 24.0523 38.0523 24.5 37.5 24.5C36.9477 24.5 36.5 24.0523 36.5 23.5C36.5 22.9477 36.9477 22.5 37.5 22.5Z" stroke="#4F973A"/>
<path d="M16 26.5H19.3511H28.9561C29.925 26.5 30.8342 26.0321 31.3973 25.2437L33 23L34.7171 19.9092C35.2003 19.0394 36.1171 18.5 37.112 18.5H42" stroke="url(#paint2_linear_15_33)"/>
<path d="M12.95 25.5C12.95 25.2239 13.1738 25 13.45 25H15.45C15.7261 25 15.95 25.2239 15.95 25.5V27.5C15.95 27.7761 15.7261 28 15.45 28H13.45C13.1738 28 12.95 27.7761 12.95 27.5V25.5Z" fill="#70B646"/>
<path d="M42.05 17.5C42.05 17.2239 42.2739 17 42.55 17H44.55C44.8262 17 45.05 17.2239 45.05 17.5V19.5C45.05 19.7761 44.8262 20 44.55 20H42.55C42.2739 20 42.05 19.7761 42.05 19.5V17.5Z" fill="#70B646"/>
<rect x="3.94995" y="19" width="3" height="3" rx="0.5" fill="#72B541"/>
<defs>
<linearGradient id="paint0_linear_15_33" x1="7" y1="21.5" x2="34.1" y2="21.5" gradientUnits="userSpaceOnUse">
<stop stop-color="#72B541"/>
<stop offset="1" stop-color="#77B449"/>
</linearGradient>
<linearGradient id="paint1_linear_15_33" x1="9.41379" y1="24.5" x2="37" y2="24.5" gradientUnits="userSpaceOnUse">
<stop stop-color="#70B646"/>
<stop offset="1" stop-color="#4F973A"/>
</linearGradient>
<linearGradient id="paint2_linear_15_33" x1="27.7288" y1="19.1667" x2="27.7288" y2="29.8333" gradientUnits="userSpaceOnUse">
<stop stop-color="#4F973A"/>
<stop offset="1" stop-color="#70B646"/>
</linearGradient>
</defs>
</svg>
